<?xml version="1.0" standalone="no"?>
<!DOCTYPE svg PUBLIC "-//W3C//DTD SVG 20010904//EN"
 "http://www.w3.org/TR/2001/REC-SVG-20010904/DTD/svg10.dtd">
<svg version="1.0" xmlns="http://www.w3.org/2000/svg"
 width="64.000000pt" height="64.000000pt" viewBox="0 0 64.000000 64.000000"
 preserveAspectRatio="xMidYMid meet">

<g transform="translate(0.000000,64.000000) scale(0.100000,-0.100000)"
fill="#000000" stroke="none">
<path d="M338 549 c-31 -18 -20 -42 54 -116 l72 -73 -192 0 c-200 0 -232 -6
-232 -40 0 -34 32 -40 232 -40 l192 0 -72 -73 c-39 -40 -72 -80 -72 -89 0 -16
27 -38 46 -38 15 0 234 225 234 240 0 17 -220 240 -236 240 -5 0 -17 -5 -26
-11z"/>
</g>
</svg>
