<?xml version="1.0" standalone="no"?>
<!DOCTYPE svg PUBLIC "-//W3C//DTD SVG 20010904//EN"
 "http://www.w3.org/TR/2001/REC-SVG-20010904/DTD/svg10.dtd">
<svg version="1.0" xmlns="http://www.w3.org/2000/svg"
 width="204.000000pt" height="192.000000pt" viewBox="0 0 204.000000 192.000000"
 preserveAspectRatio="xMidYMid meet">

<g transform="translate(0.000000,192.000000) scale(0.100000,-0.100000)"
fill="#000000" stroke="none">
<path d="M993 1463 c15 -2 39 -2 55 0 15 2 2 4 -28 4 -30 0 -43 -2 -27 -4z"/>
<path d="M875 1436 c-60 -28 -138 -109 -168 -174 -20 -43 -22 -66 -25 -254
l-3 -207 -67 -4 -67 -3 73 -2 72 -2 0 189 c0 160 3 199 20 253 31 100 113 182
215 214 22 7 31 13 20 13 -11 1 -42 -10 -70 -23z"/>
<path d="M1115 1446 c88 -28 169 -100 209 -185 19 -41 21 -68 24 -258 l4 -213
71 2 72 2 -67 3 -67 4 -3 207 c-3 203 -4 208 -31 264 -15 31 -47 75 -70 99
-44 44 -127 89 -162 88 -11 0 -2 -6 20 -13z"/>
<path d="M891 1379 c-44 -22 -72 -45 -96 -78 -35 -48 -61 -120 -52 -143 3 -7
6 -2 6 12 2 39 45 122 82 157 52 49 114 73 189 73 135 0 241 -87 270 -223 l9
-42 -3 41 c-11 130 -134 234 -277 234 -54 0 -77 -6 -128 -31z"/>
<path d="M971 1174 c0 -11 3 -14 6 -6 3 7 2 16 -1 19 -3 4 -6 -2 -5 -13z"/>
<path d="M976 1119 c-3 -18 -4 -34 -2 -36 2 -3 7 10 11 27 4 17 5 34 2 36 -2
3 -7 -10 -11 -27z"/>
<path d="M1061 1123 c-1 -6 -4 -20 -7 -30 -5 -17 -5 -17 6 0 6 10 9 23 6 30
-3 9 -5 9 -5 0z"/>
<path d="M874 994 c-32 -31 -35 -127 -5 -144 11 -5 79 -10 151 -10 72 0 140 5
151 10 30 17 27 113 -5 144 -22 23 -30 24 -146 24 -116 0 -124 -1 -146 -24z
m120 -15 c14 -17 26 -43 26 -59 0 -15 7 -33 15 -40 17 -14 20 -35 4 -24 -7 4
-44 7 -83 7 -71 1 -71 1 -10 4 l61 4 -10 42 c-13 57 -20 70 -48 84 -23 12 -23
13 -2 13 12 0 33 -14 47 -31z m81 6 c15 -14 25 -36 25 -52 0 -16 7 -39 16 -51
21 -31 11 -39 -15 -13 -12 12 -21 34 -21 50 0 45 -10 62 -44 77 -27 12 -28 13
-8 14 13 0 34 -11 47 -25z m79 4 c22 -17 26 -28 26 -69 0 -27 -4 -51 -8 -54
-5 -3 -8 18 -8 46 0 43 -4 54 -28 74 -33 29 -19 32 18 3z"/>
<path d="M600 681 c0 -39 2 -41 30 -41 29 0 30 2 28 38 -3 32 -7 37 -31 40
-25 3 -27 1 -27 -37z m50 19 c0 -5 -5 -10 -12 -10 -9 0 -9 -3 0 -12 17 -17 15
-28 -7 -28 -15 0 -19 7 -19 30 1 22 6 30 20 30 10 0 18 -4 18 -10z"/>
<path d="M766 684 c-9 -20 -14 -39 -11 -42 3 -3 5 0 5 6 0 7 11 12 25 12 14 0
25 -5 25 -12 0 -6 3 -9 6 -6 5 6 -21 78 -29 78 -2 0 -11 -16 -21 -36z m34 -5
c0 -5 -7 -9 -15 -9 -9 0 -12 6 -9 15 6 15 24 11 24 -6z"/>
<path d="M946 696 c-26 -23 -35 -43 -15 -31 5 4 20 -1 31 -12 l22 -18 -17 24
c-15 23 -15 26 0 43 23 26 8 22 -21 -6z"/>
<path d="M1070 680 c0 -22 4 -40 8 -40 4 0 8 15 7 33 0 23 5 34 20 39 17 5 15
6 -7 7 -26 1 -28 -2 -28 -39z"/>
<path d="M1221 678 c1 -24 3 -35 6 -25 6 21 32 22 47 2 9 -12 11 -8 11 22 0
35 -2 38 -33 41 -32 3 -32 3 -31 -40z m54 17 c0 -5 -10 -11 -22 -13 -16 -2
-23 2 -23 13 0 11 7 15 23 13 12 -2 22 -7 22 -13z"/>
<path d="M1380 713 c0 -7 5 -15 10 -18 6 -3 11 -18 11 -33 1 -21 3 -22 6 -7 3
10 12 31 20 45 14 24 14 24 -2 5 -16 -20 -16 -20 -31 -1 -8 11 -14 15 -14 9z"/>
<path d="M659 563 c111 -4 115 -4 149 -35 40 -35 107 -68 137 -67 11 0 -1 7
-26 16 -26 8 -70 33 -98 54 l-51 39 -113 -2 -112 -2 114 -3z"/>
<path d="M1249 554 c-21 -25 -89 -66 -134 -80 -22 -7 -31 -13 -20 -13 31 -1
106 37 140 69 29 28 34 29 145 33 l115 3 -116 2 c-97 2 -119 -1 -130 -14z"/>
<path d="M993 453 c15 -2 39 -2 55 0 15 2 2 4 -28 4 -30 0 -43 -2 -27 -4z"/>
</g>
</svg>
